PathFileType	4	(X/Y/Z)	Patient4_TMGait_0pt2_03_right_08.trc.trc
DataRate	CameraRate	NumFrames	NumMarkers	Units	OrigDataRate	OrigDataStartFrame	OrigNumFrames
46.979865771812	46.979865771812	7	33	mm	46.979865771812	124	       141
Frame#	Time	Sacral			L.Shoulder			Chest			R.Shoulder			Neck			R.ASIS			L.ASIS			R.Thigh.Superior			R.Thigh.Lateral			R.Thigh.Inferior			R.Patella			L.Thigh.Superior			L.Thigh.Lateral			L.Thigh.Inferior			L.Patella			L.Shank.Superior			L.Shank.Lateral			L.Shank.Inferior			R.Shank.Superior			R.Shank.Lateral			R.Shank.Inferior			R.Heel			R.Midfoot.Superior			R.Midfoot.Lateral			R.Toe			L.Heel			L.Midfoot.Lateral			L.Midfoot.Superior			L.Toe			L.Elbow			L.Wrist			R.Elbow			R.Wrist			
		X1	Y1	Z1	X2	Y2	Z2	X3	Y3	Z3	X4	Y4	Z4	X5	Y5	Z5	X6	Y6	Z6	X7	Y7	Z7	X8	Y8	Z8	X9	Y9	Z9	X10	Y10	Z10	X11	Y11	Z11	X12	Y12	Z12	X13	Y13	Z13	X14	Y14	Z14	X15	Y15	Z15	X16	Y16	Z16	X17	Y17	Z17	X18	Y18	Z18	X19	Y19	Z19	X20	Y20	Z20	X21	Y21	Z21	X22	Y22	Z22	X23	Y23	Z23	X24	Y24	Z24	X25	Y25	Z25	X26	Y26	Z26	X27	Y27	Z27	X28	Y28	Z28	X29	Y29	Z29	X30	Y30	Z30	X31	Y31	Z31	X32	Y32	Z32	X33	Y33	Z33	

124	19.668142857143	741.086393098742	1012.587444366880	426.578622783139	966.658477632428	1429.245536962817	276.047287713931	1022.797452515027	1368.108650678506	457.285841649742	906.320262103384	1453.868650815843	604.097413170694	900.599110768578	1496.480272541016	421.944188139196	941.044994490089	944.887708279140	587.382493965724	979.626774983729	960.623156585982	315.463363433705	997.745769057164	748.817249986909	568.817082032280	920.522084609092	637.706411526005	632.922342256316	1006.923269824581	588.737381968548	560.834162940415	1016.278097070232	509.511136283964	574.656375464548	975.097386418375	730.575811825987	339.791918776219	861.281747527000	630.757707562665	257.015589890777	922.951299060098	544.076814198546	329.781338349349	908.181499704150	481.519689168574	336.349212592066	880.138848727420	414.728264695360	324.301582908370	790.198773509148	305.549254734365	264.710503809035	827.567217791052	190.965236971139	338.807759054089	1002.790206222757	419.697338630994	590.819138838969	947.859300448336	313.901971173226	665.208155488383	1006.926304442817	220.537661374815	612.911508326676	897.059350743272	44.789070367329	608.644748011613	1070.083282602827	103.384038888011	622.067277676105	990.600393808182	37.405681111299	668.556342971131	1192.727288492782	55.606522378357	628.917107434900	690.539273809725	38.387383888098	371.659157725122	768.469084569489	34.865736635921	294.693279145370	851.334130270847	95.075384934638	326.067783013215	980.643990983321	41.199217373918	303.762385791268	1128.617156822081	1148.058142834980	131.762650632373	1378.180520178868	1202.159440235381	165.261595237769	723.643372816250	1160.244461000264	692.214388248252	680.387292396942	899.980392052690	678.244375352312	
125	19.689428571429	743.806822068961	1011.700800480537	432.837589765457	967.011735306111	1429.065844082716	282.163119656049	1024.582565425206	1367.846971379024	462.978214066520	908.606041049990	1452.953744394764	610.566840799871	901.665356176526	1495.866245824479	428.429800638600	944.946146342321	943.721298066892	592.105029558469	981.885146280719	960.621336100192	320.088749020129	1001.423474961516	747.053009282073	571.030838281778	924.251549661887	636.105817286595	634.998066910070	1009.251924234093	587.320106596617	561.476778307617	1017.315333757261	507.311025713080	574.769001503293	975.226393010195	729.619769924824	342.898578755160	859.314723635033	631.503550114514	260.347010865930	920.337606490199	543.730658644309	332.091354806913	904.978442920546	481.503801320691	338.378762183465	876.550307400220	415.175780715628	326.038125475875	785.919939722861	306.643737010863	266.145327392436	823.622650538130	191.349092641327	339.191504603715	1003.197419989150	417.128743617767	590.767180659988	947.668946069633	312.007756424314	665.541928147040	1003.754313536109	217.916527526264	611.641132944738	890.500302699053	44.257096984676	608.341779350838	1064.012742023366	101.360365903594	619.870170765748	984.269769251722	37.033953473756	668.061599670413	1186.515008147009	52.583365827130	626.834143488765	686.339020280342	38.705832258692	371.677561821534	764.303610121745	35.082318275639	294.793039119777	847.273999795064	95.174332044841	326.046930041411	976.464207084057	41.018672742989	303.704082098615	1129.331344216328	1148.308016544834	137.006252454228	1378.166399331201	1206.192857950750	169.814531655557	729.213238377850	1157.437031609098	700.679487742584	689.335221771591	896.562794067937	687.197134895769	
126	19.710714285714	746.421439764066	1011.137093759220	439.315321609954	967.566340204731	1429.194783596959	288.422186768457	1026.543925586567	1367.755613227915	468.784984798962	911.121793692395	1452.207916166144	617.183378638144	902.938986009299	1495.525405293464	435.091272053236	948.848790679685	942.983785655032	597.002081308756	983.911897114690	960.760228245217	324.840705805692	1005.029970897161	745.744637782261	573.309311832264	928.291876586056	635.043340409005	637.481587352294	1011.586575038865	586.233253934584	562.267061210453	1018.664099004355	505.459057004825	575.120936319155	975.392879672497	728.911410213862	346.373295807799	857.716867488315	632.284502852457	264.036287748176	918.299772792016	543.522724508230	334.787222901519	902.380383458180	481.514472596336	340.821428505667	873.537211828015	415.600694894830	328.109711134444	782.034003683416	307.884112540733	267.854702932521	819.905585917615	191.762190162317	339.715170108491	1003.777288091268	415.009648036501	590.922492696114	947.799936773882	310.512931988101	666.209953088869	1000.790453530125	215.687489587331	610.654615230520	884.218285976637	43.827592788449	608.300575892186	1058.145628328194	99.782480839876	618.243340803515	978.179171973009	36.835803938269	667.909051508674	1180.621961022529	50.197574209000	625.446343518303	682.180694570243	39.201444351132	371.697698229687	760.190674081784	35.404847528302	294.916191085166	843.302714208126	95.315716271966	326.049440720076	972.331089466492	40.778774696107	303.641676610689	1129.520000606163	1148.202500656777	142.467024031540	1378.007996201918	1208.461768350460	174.532885936659	734.953249146132	1154.991428507077	709.658251281253	698.398440904078	893.569614504191	697.229073913256	
127	19.732000000000	748.858339943448	1010.913809450151	446.025497498930	968.289967606175	1429.593014218260	294.727463103229	1028.651625944813	1367.816798093065	474.604027397080	913.885726666534	1451.670560083265	623.845344805821	904.418139032183	1495.461363057673	441.816481197792	952.652847414866	942.665999849784	602.078663083646	985.600788574697	961.026811165712	329.708435304784	1008.406035127669	744.884294324798	575.827256834075	932.328758967634	634.452281245644	640.395941144206	1013.775458868701	585.458959082496	563.374976852973	1020.130565245344	503.984347892194	575.805933566701	975.544613430958	728.474056913207	350.199722799252	856.453107381060	633.109054094229	268.055727582107	916.840021674161	543.454815559643	337.805510657568	900.404988002900	481.546419134561	343.607484104373	871.119728074418	415.997493519001	330.463671584835	778.546941417397	309.272464776595	269.817115689555	816.418228614024	192.217528786112	340.363152780403	1004.399262218063	413.367813777148	591.359981730506	948.131993959929	309.388990122964	667.187143871105	998.088922567425	213.904654691848	609.993767624934	878.452112438640	43.512542707189	608.446214128006	1052.702187094346	98.646082637556	617.176078656656	972.555125331078	36.766480468556	668.004909223916	1175.239679017312	48.431360599910	624.687498704470	678.064018577502	39.918863711327	371.717336041596	756.124324832742	35.852857429271	295.056399143924	839.422425695122	95.506863724339	326.068664666971	968.235786101312	40.479004009242	303.575685944133	1129.189193622288	1147.712914067441	148.141469236553	1377.747486070081	1208.861685118999	179.416524996207	740.839619980527	1152.982428337307	719.027249352634	707.538814529582	891.079887235842	708.121059400273	
128	19.753285714286	751.073454414857	1011.001651772705	452.996700656980	969.099893586503	1430.191151213507	301.001629633346	1030.855621171913	1367.997433388896	480.348165778560	916.896110295814	1451.347520574389	630.476709482349	906.069276618941	1495.643656568593	448.518410982315	956.295940346904	942.705493075542	607.327452531501	986.877592370406	961.398567405411	334.680676575361	1011.449075416926	744.405005415165	578.720456755984	936.083413200655	634.220768081323	643.717042981695	1015.708686156617	584.946427642434	564.925557473498	1021.541098422913	502.858795674563	576.880459973062	975.649998986124	728.309733830214	354.310999825631	855.460247554984	633.984963354678	272.351706677788	915.934226170529	543.521312345334	341.041400436861	899.055502151431	481.587374244602	346.619141124401	869.285496816964	416.365880066367	333.012429670141	775.437522625786	310.811693904882	271.987158913653	813.150977692410	192.736083722972	341.100160329506	1004.933300095846	412.165614462663	592.123093871447	948.498559334722	308.571718275802	668.421136054342	995.612949387752	212.557506098007	609.663063643288	873.261993795780	43.313633441549	608.700681606116	1047.743432574826	97.900920872570	616.595231870173	967.455482102020	36.785040352513	668.251726514227	1170.395227589210	47.201173022534	624.436122843069	673.985246632376	40.904348850728	371.732076323130	752.091728648146	36.445037459634	295.203493058473	835.629283358202	95.755097904612	326.090985211514	964.160246182585	40.126057916280	303.506935764120	1128.291436845400	1146.795189548095	154.033939858449	1377.328375520526	1207.259913200621	184.462673249636	746.861316185004	1151.426967066070	728.682190099795	716.785828062654	889.113484617759	719.660141186750	
129	19.774571428571	753.047642332257	1011.337916283095	460.258083018651	969.879212337170	1430.904893590460	307.194520773583	1033.092079459358	1368.256487400721	485.954185668331	920.130439303629	1451.213126902911	637.032720470804	907.833552647891	1496.017507123499	455.143069682359	959.749524656216	943.002038482299	612.726781660581	987.702560568767	961.847298933652	339.746091856802	1014.109416830728	744.201988125604	582.060616482053	939.355217803028	634.219856877744	647.389115444474	1017.322041266807	584.626197267132	566.982435506840	1022.760754181103	502.015733027166	578.366538573068	975.706207754679	728.404671808719	358.604902173267	854.675658791036	634.913618749042	276.852794489977	915.558316121474	543.711082338963	344.367754264210	898.346408160136	481.616866604737	349.708830655690	868.014102408993	416.706595943814	335.647891173209	772.679466095681	312.507131146569	274.304040863961	810.093705964465	193.344105683354	341.877201584797	1005.270467940782	411.321242615377	593.226496233561	948.729050211865	307.977042232892	669.849811003493	993.272419707442	211.587366109379	609.640741609611	868.580815255506	43.219991665061	608.996871126478	1043.215701508480	97.469581327121	616.394359644239	962.818943779880	36.855491034793	668.565101106705	1166.003445238860	46.391645597932	624.547728411806	669.939737154671	42.206635008924	371.735667210953	748.076061982732	37.200831622122	295.345207937096	831.916980221832	96.067996356932	326.097301146150	960.079001713528	39.732710002686	303.436871369223	1126.717803484642	1145.390733035551	160.155870266994	1376.585400178459	1203.496753048636	189.665155258069	753.026600861294	1150.282397750987	738.542405571354	726.238439618294	887.631985600391	731.661302097712	
130	19.795857142857	754.777901875211	1011.844801111876	467.826080805704	970.499207135828	1431.651225450765	313.284044025174	1035.291168186141	1368.551774824059	491.386108725403	923.547715292418	1451.218172103080	643.497390664260	909.636505674579	1496.516811837370	461.669446640390	963.009283986445	943.439018932605	618.243490745168	988.065451740682	962.344077323590	344.893254453864	1016.382306678147	744.160371398796	585.844819895872	942.047469536176	634.327062943508	651.338765540021	1018.596020413204	584.423940294268	569.541740249555	1023.703469069450	501.369332955050	580.252943817423	975.743358016980	728.738205709285	362.966607470317	854.070534984820	635.884109331913	281.480235352062	915.718505532920	544.009701595247	347.656983196122	898.330199762963	481.606584831138	352.721293939916	867.306290597162	417.016145399549	338.258618863103	770.267982502388	314.367022633149	276.702054981906	807.248873184030	194.069085016108	342.640245800254	1005.336273714051	410.730929496443	594.657825137811	948.681577955893	307.516958626622	671.411667230898	990.958354748005	210.907450240171	609.887493956340	864.267692766848	43.210786122961	609.285447204384	1038.997946838469	97.265303220176	616.458359248755	958.515707256063	36.948473051758	668.882299109407	1161.918501079232	45.882976946410	624.881226865780	665.926044709141	43.879059895207	371.720804998763	744.061437495487	38.143358268924	295.469186991529	828.282374978940	96.453867641591	326.065700237734	955.963171086351	39.315396016026	303.367728161013	1124.302112558984	1143.433488272727	166.522504526270	1375.251257349864	1197.395860549057	195.014506659888	759.368723206117	1149.452760238752	748.548956107004	736.059105272402	886.547422240240	743.978357111311	
